<svg xmlns="http://www.w3.org/2000/svg" xmlns:xlink="http://www.w3.org/1999/xlink" width="51" height="35.5" viewBox="0 0 51 35.5">
  <defs>
    <clipPath id="clip-path">
      <rect id="Rectangle_1738" data-name="Rectangle 1738" width="37.618" height="23.458" fill="none"/>
    </clipPath>
  </defs>
  <g id="Group_21203" data-name="Group 21203" transform="translate(-179.527 -5)">
    <path id="Path_16523" data-name="Path 16523" d="M0,0H50" transform="translate(180.027 40)" fill="none" stroke="#ffe24e" stroke-linecap="round" stroke-width="1"/>
    <g id="Group_3384" data-name="Group 3384" transform="translate(186.611 5)" clip-path="url(#clip-path)">
      <path id="Path_2240" data-name="Path 2240" d="M74.933,46.473h-21.8V30.647h23.43V44.994a1.559,1.559,0,0,1-1.628,1.479" transform="translate(-39.458 -23.482)" fill="#ffe24e"/>
      <path id="Path_2241" data-name="Path 2241" d="M34.926,23.458H2.692A2.581,2.581,0,0,1,0,21.012V2.446A2.581,2.581,0,0,1,2.692,0H34.926a2.581,2.581,0,0,1,2.692,2.446V21.012a2.581,2.581,0,0,1-2.692,2.446M2.692.935A1.594,1.594,0,0,0,1.029,2.446V21.012a1.594,1.594,0,0,0,1.663,1.511H34.926a1.594,1.594,0,0,0,1.663-1.511V2.446A1.594,1.594,0,0,0,34.926.935Z" fill="#153566"/>
      <rect id="Rectangle_1736" data-name="Rectangle 1736" width="36.589" height="0.935" transform="translate(0.515 3.312)" fill="#153566"/>
      <rect id="Rectangle_1737" data-name="Rectangle 1737" width="36.589" height="0.935" transform="translate(0.515 6.697)" fill="#153566"/>
      <path id="Path_2242" data-name="Path 2242" d="M17.7,53.808a1.058,1.058,0,0,1-.314-.815v-.541a1.059,1.059,0,0,1,.314-.815,1.492,1.492,0,0,1,1.773,0,1.073,1.073,0,0,1,.312.824v.532a1.056,1.056,0,0,1-.314.817,1.493,1.493,0,0,1-1.771,0m3.956-2.4H22.67l-3.689,6.288H17.967ZM18.8,53.229A.33.33,0,0,0,18.871,53v-.558a.317.317,0,0,0-.074-.223.321.321,0,0,0-.424,0,.323.323,0,0,0-.074.227V53a.326.326,0,0,0,.074.233.324.324,0,0,0,.424,0m2.344,4.238a1.059,1.059,0,0,1-.314-.815v-.541a1.059,1.059,0,0,1,.314-.815,1.493,1.493,0,0,1,1.773,0,1.074,1.074,0,0,1,.312.824v.532a1.056,1.056,0,0,1-.314.817,1.493,1.493,0,0,1-1.771,0m1.1-.58a.331.331,0,0,0,.074-.231V56.1a.317.317,0,0,0-.074-.223.32.32,0,0,0-.424,0,.322.322,0,0,0-.074.227v.554a.328.328,0,0,0,.074.234.278.278,0,0,0,.212.078.273.273,0,0,0,.212-.08" transform="translate(-12.912 -39.342)" fill="#153566"/>
      <path id="Path_2243" data-name="Path 2243" d="M81.2,50.416H64.789a.458.458,0,1,1,0-.913H81.2a.458.458,0,1,1,0,.913" transform="translate(-47.743 -37.93)" fill="#153566"/>
      <path id="Path_2244" data-name="Path 2244" d="M81.2,63.457H64.789a.458.458,0,1,1,0-.913H81.2a.458.458,0,1,1,0,.913" transform="translate(-47.743 -47.922)" fill="#153566"/>
      <path id="Path_2245" data-name="Path 2245" d="M81.2,76.5H64.789a.458.458,0,1,1,0-.913H81.2a.458.458,0,1,1,0,.913" transform="translate(-47.743 -57.914)" fill="#153566"/>
    </g>
  </g>
</svg>
